<?xml version="1.0" encoding="UTF-8"?>
<svg enable-background="new 0 0 255.1 255.1" version="1.1" viewBox="0 0 255.1 255.1" xml:space="preserve" xmlns="http://www.w3.org/2000/svg">
<style type="text/css">
	.st0{fill:#AFDFF9;}
</style>
<path class="st0" d="M6.7,127.6v104.7c0,8.9,7.3,16.2,16.2,16.2h209.3c8.9,0,16.2-7.2,16.2-16.2V22.8c0-8.9-7.3-16.1-16.2-16.1H22.9  C14,6.7,6.7,13.9,6.7,22.8V127.6"/>
<path d="m197 196.4v1.1l-0.1-138.1c0-7.8-2.1-11.7-4.3-14.6-1.7-2.4-6.4-8.3-20.5-8.3h-90.4c-13.1 0-17.8 5-20.1 8s-4.6 7.5-4.6 14.9v138.2 0.1c0 3.5 2 5.4 5 5.4h3.7v5.8c0 6.7 3.2 8.4 10.3 8.4s11.3-1.7 11.3-8.4v-5.7h79.4v5.7c0 6.8 4.3 8.4 11.3 8.4 7.2 0 10.4-1.7 10.4-8.4v-5.8h3.6c3 0 5.1-1.8 5.1-5.4l-0.1-1.3zm-115.9-147.5c0-1.7 1.3-3 3-3h85.7c1.7 0 3 1.3 3 3v5.1c0 1.7-1.3 3-3 3h-85.7c-1.7 0-3-1.3-3-3v-5.1zm-11.3 26.3c0.5-10.2 1.5-10.8 11.3-10.8h91.8c9.8 0 10.8 0.6 11.4 10.8l2 67.6c0.2 6.7-6.9 10.7-18.2 10.7h-82.2c-12 0-18.3-4.5-18.2-10.7l2.1-67.6zm19.8 112.8c0 1.7-1.3 3-3 3h-17.2c-1.7 0-3-1.3-3-3v-5.6c0-1.7 1.3-3 3-3h17.2c1.7 0 3 1.3 3 3v5.6zm98.1 0c0 1.7-1.3 3-3 3h-17.2c-1.7 0-3-1.3-3-3v-5.6c0-1.7 1.3-3 3-3h17.2c1.7 0 3 1.3 3 3v5.6z"/>
</svg>
